<svg xmlns="http://www.w3.org/2000/svg" width="364.384" height="324.644" viewBox="0 0 364.384 324.644">
  <g id="Grupo_54482" data-name="Grupo 54482" transform="translate(-104.418 -1817.533)">
    <g id="Grupo_54482-2" data-name="Grupo 54482">
      <path id="Trazado_100598" data-name="Trazado 100598" d="M310.267,1826.224c53.613.472,175.628,241.182,129.41,295.531S91.67,2113.238,104.836,2035.6,256.655,1825.754,310.267,1826.224Z" fill="#fff" opacity="0.2" style="isolation: isolate"/>
      <path id="Trazado_100599" data-name="Trazado 100599" d="M345.114,1818.942s137.338,115.082,121.393,293.946" fill="none" stroke="#fff" stroke-linecap="round" stroke-linejoin="round" stroke-width="2" stroke-dasharray="12"/>
    </g>
    <g id="Grupo_54510" data-name="Grupo 54510">
      <path id="Trazado_102309" data-name="Trazado 102309" d="M414.462,2107.752H206.072a.914.914,0,1,1,0-1.829h208.39a.914.914,0,0,1,0,1.829Z" fill="#8282a8"/>
      <g id="Grupo_54483" data-name="Grupo 54483">
        <rect id="Rectángulo_5409" data-name="Rectángulo 5409" width="73.739" height="1.825" transform="translate(162.312 1990.99) rotate(-84.313)" fill="#08938f"/>
      </g>
      <g id="Grupo_54503" data-name="Grupo 54503">
        <path id="Trazado_102310" data-name="Trazado 102310" d="M188.123,1913.111s.1-5.558,4.674-5.558,4.633,8.174,4.633,8.174Z" fill="#3e3d51"/>
        <rect id="Rectángulo_5410" data-name="Rectángulo 5410" width="4.29" height="9.973" transform="translate(218.463 1922.518)" fill="#3e3d51"/>
        <rect id="Rectángulo_5411" data-name="Rectángulo 5411" width="4.29" height="9.973" transform="translate(218.463 2024.998)" fill="#3e3d51"/>
        <path id="Trazado_102311" data-name="Trazado 102311" d="M366.568,1900.77H243.876v4.85h4.29v161.87H363.35V1905.62h3.218Z" fill="#d3c7ba"/>
        <rect id="Rectángulo_5412" data-name="Rectángulo 5412" width="51.632" height="135.479" transform="translate(169.036 1911.548)" fill="#d3c7ba"/>
        <rect id="Rectángulo_5413" data-name="Rectángulo 5413" width="2.748" height="135.479" transform="translate(169.036 1911.548)" fill="#fdf0e0"/>
        <rect id="Rectángulo_5414" data-name="Rectángulo 5414" width="115.183" height="162.082" transform="translate(222.753 1905.657)" fill="#e8dbcd"/>
        <path id="Trazado_102312" data-name="Trazado 102312" d="M275.422,2054.569c.614,1.263,3.889,7.762,6.975,9.194.126.059,3.813-.171,3.942-.114,3.447,1.546,3.253,2.111,3.26,2.406.005.247-.014.913-.344,1.019-.594.192-2.561.268-8.054.146a.315.315,0,0,1-.273-.166c-2.644-4.878-5.47-6.538-5.446-5.442.127,5.675.265,5.81-.188,5.82-.227-.031-.781.152-.826-.273-.151-1.415-.829-7.541-1.383-8.071-.612-.585-1.235-4.09,1.992-4.693A.318.318,0,0,1,275.422,2054.569Z" fill="#3e3d51"/>
        <path id="Trazado_102313" data-name="Trazado 102313" d="M273.444,2054.569c.613,1.263,3.889,7.762,6.974,9.194.127.059,3.813-.171,3.942-.114,3.448,1.546,3.254,2.111,3.26,2.406.006.247-.013.913-.343,1.019-.594.192-2.561.268-8.054.146a.318.318,0,0,1-.274-.166c-2.644-4.878-5.47-6.538-5.445-5.442.127,5.675.265,5.81-.188,5.82-.227-.031-.781.152-.827-.273-.15-1.415-.829-7.541-1.382-8.071-.612-.585-1.236-4.09,1.992-4.693A.319.319,0,0,1,273.444,2054.569Z" fill="#3bd0cc"/>
        <rect id="Rectángulo_5415" data-name="Rectángulo 5415" width="32.549" height="162.082" transform="translate(222.232 1905.657)" fill="#d3c7ba"/>
        <rect id="Rectángulo_5416" data-name="Rectángulo 5416" width="122.692" height="4.85" transform="translate(218.463 1900.77)" fill="#fdf0e0"/>
        <rect id="Rectángulo_5417" data-name="Rectángulo 5417" width="2.856" height="162.082" transform="translate(222.09 1905.657)" fill="#fdf0e0"/>
        <g id="Grupo_54488" data-name="Grupo 54488">
          <g id="Grupo_54484" data-name="Grupo 54484">
            <path id="Trazado_102314" data-name="Trazado 102314" d="M292.86,2025.775l34.229-.067c.911,0,1.609.531,1.473,1.123l-.53,2.3-1.715,0-1.034,11.553c-.056.619-.834,1.1-1.776,1.1H296.186l-1.136-12.7-1.616,0Z" fill="#d6d6ed"/>
            <path id="Trazado_102315" data-name="Trazado 102315" d="M295.6,2041.779h20.97l1.124-15.764H292.78l1.045,14.668C293.869,2041.3,294.651,2041.779,295.6,2041.779Z" fill="#ece1ef"/>
            <path id="Trazado_102316" data-name="Trazado 102316" d="M291.751,2029.088l27.048.047.617-3.421-26.5.067c-.871,0-1.551.493-1.474,1.063Z" fill="#fbf3ff"/>
            <path id="Trazado_102317" data-name="Trazado 102317" d="M318.8,2029.135l-25.8-.047,24.98.9Z" fill="#d6d6ed"/>
          </g>
          <g id="Grupo_54487" data-name="Grupo 54487">
            <g id="Grupo_54485" data-name="Grupo 54485">
              <path id="Trazado_102318" data-name="Trazado 102318" d="M290.445,2041.623l34.23-.11a1.561,1.561,0,0,1,1.473,1.833l-.53,3.746-1.716,0-1.034,18.854a1.837,1.837,0,0,1-1.775,1.8H293.772l-1.136-20.72-1.616,0Z" fill="#d6d6ed"/>
              <path id="Trazado_102319" data-name="Trazado 102319" d="M293.188,2067.739h20.97l1.123-25.726H290.366l1.045,23.937A1.823,1.823,0,0,0,293.188,2067.739Z" fill="#ece1ef"/>
              <path id="Trazado_102320" data-name="Trazado 102320" d="M289.337,2047.028l27.048.077.617-5.582-26.5.109a1.553,1.553,0,0,0-1.473,1.735Z" fill="#fbf3ff"/>
              <path id="Trazado_102321" data-name="Trazado 102321" d="M316.385,2047.1l-25.8-.077,24.98,1.463Z" fill="#d6d6ed"/>
            </g>
            <g id="Grupo_54486" data-name="Grupo 54486">
              <rect id="Rectángulo_5418" data-name="Rectángulo 5418" width="16.291" height="38.543" transform="translate(336.959 2067.736) rotate(180)" fill="#3e3d51"/>
              <rect id="Rectángulo_5419" data-name="Rectángulo 5419" width="1.005" height="38.543" transform="translate(335.12 2029.194)" fill="#f7cc7f"/>
              <rect id="Rectángulo_5420" data-name="Rectángulo 5420" width="1.005" height="38.543" transform="translate(332.153 2029.194)" fill="#8282a8"/>
              <rect id="Rectángulo_5421" data-name="Rectángulo 5421" width="1.005" height="38.543" transform="translate(329.186 2029.194)" fill="#8282a8"/>
              <rect id="Rectángulo_5422" data-name="Rectángulo 5422" width="1.005" height="38.543" transform="translate(326.219 2029.194)" fill="#8282a8"/>
              <rect id="Rectángulo_5423" data-name="Rectángulo 5423" width="1.005" height="38.543" transform="translate(323.252 2029.194)" fill="#8282a8"/>
              <rect id="Rectángulo_5424" data-name="Rectángulo 5424" width="16.289" height="1.589" transform="translate(320.67 2029.192)" fill="#8282a8"/>
            </g>
          </g>
        </g>
        <g id="Grupo_54501" data-name="Grupo 54501">
          <path id="Trazado_102322" data-name="Trazado 102322" d="M335.411,1930.869l-57.462-.373-40.432-.263a1.411,1.411,0,0,0-.1,2.741l.067,0,97.893.635a1.271,1.271,0,0,0,1.131-1.364A1.253,1.253,0,0,0,335.411,1930.869Z" fill="#3e3d51"/>
          <g id="Grupo_54489" data-name="Grupo 54489">
            <path id="Trazado_102323" data-name="Trazado 102323" d="M268.775,1940.466a.661.661,0,0,1-.3-.775c.744-2.847,1.728-7.836,1.206-9.1a.428.428,0,0,0-.122-.179c-1.3-.472-2.315,1.61-2.326,1.63a.425.425,0,0,1-.665.186.72.72,0,0,1-.145-.846c.058-.116,1.443-2.824,3.433-2.1a1.2,1.2,0,0,1,.677.734c.4.965.32,2.913-.24,5.956-.4,2.152-.884,4.027-.9,4.106C269.3,1940.4,269.027,1940.572,268.775,1940.466Z" fill="#fbf3ff"/>
          </g>
          <g id="Grupo_54490" data-name="Grupo 54490">
            <path id="Trazado_102324" data-name="Trazado 102324" d="M298.309,1939.3a.647.647,0,0,1-.319-.762c.005-.02.5-2.12.8-4.263.419-3.067.115-4.043-.1-4.131-1.294-.519-2.388,1.477-2.4,1.5a.424.424,0,0,1-.67.166.722.722,0,0,1-.121-.853c.061-.114,1.521-2.773,3.489-1.984.974.391,1.213,2.141.753,5.509-.3,2.218-.8,4.315-.823,4.4C298.833,1939.2,298.564,1939.392,298.309,1939.3Z" fill="#fbf3ff"/>
          </g>
          <g id="Grupo_54491" data-name="Grupo 54491">
            <path id="Trazado_102325" data-name="Trazado 102325" d="M321.128,1939.929a.666.666,0,0,1-.282-.786c.823-2.82,1.948-7.773,1.461-9.057-.043-.113-.077-.127-.088-.131-1.294-.519-2.387,1.478-2.4,1.5a.424.424,0,0,1-.67.166.723.723,0,0,1-.122-.853c.061-.113,1.521-2.773,3.49-1.983a1.21,1.21,0,0,1,.656.757c.75,1.978-.857,8.065-1.427,10.018A.467.467,0,0,1,321.128,1939.929Z" fill="#fbf3ff"/>
          </g>
          <path id="Trazado_102326" data-name="Trazado 102326" d="M261.757,1939.9s3.806,5.487,7.128,4.2a10.79,10.79,0,0,0,4.994-4.124l3.136.886-10.709,16.762-7.832-17.016Z" fill="#d6d6ed"/>
          <g id="Grupo_54492" data-name="Grupo 54492">
            <path id="Trazado_102327" data-name="Trazado 102327" d="M335.124,1961.549a9.691,9.691,0,0,0,1.663-5.256l.162-5.507c.215-7.342-4.185-13.461-9.889-13.863l-.1-.025s-9.812-1.082-10.409-.775-5.769,1.977-7.615,4.192-3.1,10.91-3.1,10.91-3.093,3.778-3.75,6.467a20.352,20.352,0,0,0-.184,6.255,37.172,37.172,0,0,1-.854,6.363c-.767,3.383-.246,10.285.663,11.52s4.423.955,4.423.955-.186,6.3.906,7.019c.591.386,12.511,2.091,16.514,2.215s4.353-4.266,4.353-4.266,6.167,2.529,7.382-1.333a14.45,14.45,0,0,0-.4-10.306C338.211,1972.481,337.667,1965.9,335.124,1961.549Z" fill="#08938f"/>
            <path id="Trazado_102328" data-name="Trazado 102328" d="M317.532,1934.073c-1.016-.032-1.832,1.083-1.741,2.373.117,1.661.362,3.653.909,4.395.975,1.325,9.395,2.117,10.56.328a12.373,12.373,0,0,0,1.21-4.3,2.037,2.037,0,0,0-1.6-2.5Z" fill="#3e3d51"/>
            <path id="Trazado_102329" data-name="Trazado 102329" d="M320.817,1936.292a13.1,13.1,0,0,0-.131,5.829,25.489,25.489,0,0,0-1.786,12.2c-.325,1.073-2.841,9.716-1.718,16.067a86.546,86.546,0,0,0-1.319,8.845,80.294,80.294,0,0,0-.33,11.98l.649.084a78.856,78.856,0,0,1,.317-11.957,83.844,83.844,0,0,1,1.323-8.841l.023-.1-.019-.1c-.852-4.637.409-11.562,1.731-15.875l-.009-.1a24.79,24.79,0,0,1,1.853-12.127l-.062-.194a11.981,11.981,0,0,1,.134-5.645Z" fill="#d6d6ed"/>
            <path id="Trazado_102330" data-name="Trazado 102330" d="M322.116,1934.215l-.751-.023c-.268.842-1.488,4.964-.695,7.872.235.027.474.051.715.071l-.046-.141c-.869-2.7.474-7.044.646-7.58Z" fill="#d6d6ed"/>
            <path id="Trazado_102331" data-name="Trazado 102331" d="M325.541,1979.852a16.4,16.4,0,0,1,1.406-5.2l-.115-.21c-1.738-3.173-.516-10.3.4-13.969l.03-.119c0-.01-1.166-2.772.008-9.131-.7,2.513-1.268,6.472-.528,9.154-1.1,3.906-2.308,10.865-.517,14.326a16.032,16.032,0,0,0-1.157,6.953,8.782,8.782,0,0,0,2.835,6.1A9.936,9.936,0,0,1,325.541,1979.852Z" fill="#3e3d51"/>
          </g>
          <g id="Grupo_54493" data-name="Grupo 54493">
            <path id="Trazado_102332" data-name="Trazado 102332" d="M309.979,1939.065a.673.673,0,0,1-.265-.8c1.248-3.933,1.947-8.105,1.344-8.347-1.293-.519-2.388,1.478-2.4,1.5a.424.424,0,0,1-.67.166.723.723,0,0,1-.122-.853c.061-.113,1.522-2.773,3.49-1.983a1.264,1.264,0,0,1,.678.79c.7,1.907-.844,7.33-1.43,9.177C310.527,1938.964,310.227,1939.189,309.979,1939.065Z" fill="#ece1ef"/>
          </g>
          <g id="Grupo_54494" data-name="Grupo 54494">
            <path id="Trazado_102333" data-name="Trazado 102333" d="M321.083,1942.207c-1.445-1.962-10.788-3.047-15.469-3.192a11.5,11.5,0,0,0-4.775.642c-.244.2-.792-.046-.943-.355s-.379-.491-.134-.687a14.407,14.407,0,0,1,5.891-.924c.139,0,13.918.515,16.191,3.6a.8.8,0,0,1-.028.936A.444.444,0,0,1,321.083,1942.207Z" fill="#ece1ef"/>
          </g>
          <g id="Grupo_54496" data-name="Grupo 54496">
            <g id="Grupo_54495" data-name="Grupo 54495">
              <path id="Trazado_102334" data-name="Trazado 102334" d="M293.822,1942.61c-1.785-3.144-10.221-4.237-16.9-4.218a9.353,9.353,0,0,0-5.561,2.167.452.452,0,0,1-.723-.159.785.785,0,0,1,.126-.922,10.121,10.121,0,0,1,6.159-2.41c15.123-.044,18.818,4.583,17.626,5.688A.451.451,0,0,1,293.822,1942.61Z" fill="#ece1ef"/>
            </g>
            <path id="Trazado_102335" data-name="Trazado 102335" d="M279.115,1943.863c-1.855-2.271-12.046-3.182-14.891-3.174a11.848,11.848,0,0,0-6.307,2.359.468.468,0,0,1-.729-.22.791.791,0,0,1,.175-.93,12.628,12.628,0,0,1,6.862-2.561c2.8-.008,13.4.821,15.626,3.548a.815.815,0,0,1,.014.956A.454.454,0,0,1,279.115,1943.863Z" fill="#fbf3ff"/>
          </g>
          <path id="Trazado_102336" data-name="Trazado 102336" d="M301.487,1964.707l4.225.131-.3-22.26s-2.194,1.033-2.655.406S301.487,1964.707,301.487,1964.707Z" fill="#3e3d51"/>
          <g id="Grupo_54497" data-name="Grupo 54497">
            <path id="Trazado_102337" data-name="Trazado 102337" d="M309.409,1944.676l-23.069-3.187c-.523-.072-.629-.985-.145-1.261.179-.1,4.426-2.514,7.841-2.408,4.848.15,12.515,1.259,15.816,5.741C310.18,1944.007,309.888,1944.742,309.409,1944.676Zm-20.816-4.209,18.986,2.45c-3.824-3.3-10.524-3.678-13.582-3.773A13.843,13.843,0,0,0,288.593,1940.467Z" fill="#fbf3ff"/>
          </g>
          <path id="Trazado_102338" data-name="Trazado 102338" d="M292.16,1940.953l-1.691,54.179,12.228.379s1.143-19.982,3.955-21.031l-3.8-10.765,2.558-21.137Z" fill="#0ac4bf"/>
          <path id="Trazado_102339" data-name="Trazado 102339" d="M290.6,1990.808c2.943.024,9.045.208,12.34,1.264.018-.229.038-.465.059-.71-3.437-1.074-9.441-1.254-12.377-1.274Z" fill="#3e3d51"/>
          <g id="Grupo_54498" data-name="Grupo 54498">
            <path id="Trazado_102340" data-name="Trazado 102340" d="M282.8,1938.551c-.249-.115-.383-.2-.289-.52.737-2.514,1.731-6.965,1.261-8.207-.052-.136-.1-.154-.117-.162-1.293-.519-2.387,1.478-2.4,1.5a.424.424,0,0,1-.67.166.721.721,0,0,1-.121-.852c.061-.114,1.521-2.774,3.49-1.984a1.266,1.266,0,0,1,.684.789c.361.953.257,2.75-.316,5.495-.4,1.937-.892,3.6-.912,3.674C283.314,1938.766,283.045,1938.667,282.8,1938.551Z" fill="#ece1ef"/>
          </g>
          <path id="Trazado_102341" data-name="Trazado 102341" d="M289.745,2017.34a11.8,11.8,0,0,1-.755,1.513c-1.446,2.449-3.217,3.74-5.187,1.981l-.055-.052c-3.628-3.531.359-22.238-2.067-34.545-.259-1.2-1.526-9.006-4.018-13.087.021.033-1.212-2.13-2.358-2.6.01,0-.142-.072-.153-.077l-4.959,2.549,1.07,2.517,3.929-3.543c.715.557,3.226,3.152,4.969,13.625a49.479,49.479,0,0,1,.753,7.963c.329,12.857-2.5,25.168,1.613,29.28a4.74,4.74,0,0,0,3.486,1.453,5.3,5.3,0,0,0,3.329-1.869l.173-.194a14.275,14.275,0,0,0,2.229-3.607ZM275,1971.855Z" fill="#8282a8"/>
          <path id="Trazado_102342" data-name="Trazado 102342" d="M261.758,1939.594s1.889,14.54,5.211,13.259,6.91-12.868,6.91-12.868l3.136.886s.286,20.816,1.285,22.091l-3.149,7.465s7.3,53.546,6.51,67.314c0,0-9.569,4.285-24.132.071,0,0,2.418-47.72,2.822-57.064.288-6.671.8-10.882.186-17.315-1.019-10.732-2.063-22.816-2.063-22.816Z" fill="#ece1ef"/>
          <path id="Trazado_102343" data-name="Trazado 102343" d="M253.669,1942.913l-5.586-3.012-5.359,8.522-2.22,46.9,20.732.643.467-53.792-2.614-1.927Z" fill="#333343"/>
          <g id="Grupo_54499" data-name="Grupo 54499">
            <path id="Trazado_102344" data-name="Trazado 102344" d="M253.126,1941.4a.7.7,0,0,1-.332-.83c.006-.026.669-2.636,1.142-5.333.859-4.9.294-5.45.288-5.454-1.15-.669-2.314,1.725-2.325,1.749a.466.466,0,0,1-.712.239.765.765,0,0,1-.178-.905c.062-.134,1.552-3.266,3.58-2.328,1,.463,1.121,2.575.382,6.846-.485,2.806-1.184,5.553-1.191,5.581C253.692,1941.318,253.4,1941.512,253.126,1941.4Z" fill="#fbf3ff"/>
          </g>
          <g id="Grupo_54500" data-name="Grupo 54500">
            <path id="Trazado_102345" data-name="Trazado 102345" d="M245.191,1943.509a.77.77,0,0,1,.2-.9,14.223,14.223,0,0,1,4.553-1.919,20.11,20.11,0,0,1,11.9.843.7.7,0,0,1,.347.819c-.082.351-.372.554-.647.453a19.312,19.312,0,0,0-11.368-.828,13.679,13.679,0,0,0-4.289,1.784A.462.462,0,0,1,245.191,1943.509Z" fill="#fbf3ff"/>
          </g>
          <path id="Trazado_102346" data-name="Trazado 102346" d="M248.083,1939.9s-6.056,3.52-7.5,8.218c-.875,2.849-3.288,23.429-3.288,23.429l4.172.868.7-12.038-2.35,40.246,6.892.214Z" fill="#3bd0cc"/>
          <path id="Trazado_102347" data-name="Trazado 102347" d="M259.088,1940.241l-3.84,60.86,8.287-.1,1.1-37.588-.988-21.488Z" fill="#3bd0cc"/>
          <path id="Trazado_102348" data-name="Trazado 102348" d="M269.339,1974.236s.051-18.86-1.322-25.149-4.366-7.162-4.366-7.162-.52,17.694-.491,21.757c.014,1.986.175,10.368.175,10.368Z" fill="#3bd0cc"/>
          <path id="Trazado_102349" data-name="Trazado 102349" d="M318.719,1930.751l1.873.012-.74,1.7-1.345-.042Z" fill="#3e3d51"/>
          <path id="Trazado_102350" data-name="Trazado 102350" d="M307.221,1930.677l2.227.015-.613,1.509a9.132,9.132,0,0,1-1.651-.218C307.187,1931.88,307.221,1930.677,307.221,1930.677Z" fill="#3e3d51"/>
          <path id="Trazado_102351" data-name="Trazado 102351" d="M294.4,1930.6l3.446.022-1.012,2.211-2.268-.391Z" fill="#3e3d51"/>
          <path id="Trazado_102352" data-name="Trazado 102352" d="M282.181,1930.523l-.655,1.59-1.892.249-.927-1.864Z" fill="#3e3d51"/>
          <path id="Trazado_102353" data-name="Trazado 102353" d="M265.316,1930.41l4.142.031-1.56,1.869-1.866.181Z" fill="#3e3d51"/>
          <path id="Trazado_102354" data-name="Trazado 102354" d="M250.433,1930.322l2.758.014-.946,1.681-2.283.254Z" fill="#3e3d51"/>
          <path id="Trazado_102355" data-name="Trazado 102355" d="M242.632,1950.37c-.19,5.744-.863,17.916-1.163,22.045C241.6,1968.474,242.2,1956.364,242.632,1950.37Z" fill="#3e3d51"/>
        </g>
        <rect id="Rectángulo_5425" data-name="Rectángulo 5425" width="2.857" height="162.082" transform="translate(335.079 1905.657)" fill="#fdf0e0"/>
        <rect id="Rectángulo_5426" data-name="Rectángulo 5426" width="141.238" height="18.117" transform="translate(222.09 2067.024)" fill="#e8dbcd"/>
        <g id="Grupo_54502" data-name="Grupo 54502">
          <rect id="Rectángulo_5427" data-name="Rectángulo 5427" width="37.53" height="17.253" transform="translate(263.668 2067.024) rotate(180)" fill="#fbf3ff"/>
          <rect id="Rectángulo_5428" data-name="Rectángulo 5428" width="5.879" height="17.253" transform="translate(263.668 2049.771)" fill="#3e3d51"/>
          <rect id="Rectángulo_5429" data-name="Rectángulo 5429" width="7.494" height="4.383" transform="translate(271.162 2051.061) rotate(180)" fill="#3e3d51"/>
          <rect id="Rectángulo_5430" data-name="Rectángulo 5430" width="1.359" height="17.253" transform="translate(257.715 2049.771)" fill="#ece1ef"/>
          <rect id="Rectángulo_5431" data-name="Rectángulo 5431" width="1.359" height="17.253" transform="translate(253.703 2049.771)" fill="#ece1ef"/>
          <rect id="Rectángulo_5432" data-name="Rectángulo 5432" width="1.359" height="17.253" transform="translate(249.691 2049.771)" fill="#ece1ef"/>
          <rect id="Rectángulo_5433" data-name="Rectángulo 5433" width="1.359" height="17.253" transform="translate(245.679 2049.771)" fill="#ece1ef"/>
          <rect id="Rectángulo_5434" data-name="Rectángulo 5434" width="1.359" height="17.253" transform="translate(241.668 2049.771)" fill="#ece1ef"/>
          <rect id="Rectángulo_5435" data-name="Rectángulo 5435" width="1.359" height="17.253" transform="translate(237.656 2049.771)" fill="#ece1ef"/>
          <rect id="Rectángulo_5436" data-name="Rectángulo 5436" width="1.359" height="17.253" transform="translate(233.644 2049.771)" fill="#ece1ef"/>
          <rect id="Rectángulo_5437" data-name="Rectángulo 5437" width="1.359" height="17.253" transform="translate(229.632 2049.771)" fill="#ece1ef"/>
          <rect id="Rectángulo_5438" data-name="Rectángulo 5438" width="37.527" height="0.711" transform="translate(226.141 2049.771)" fill="#f7cc7f"/>
          <rect id="Rectángulo_5439" data-name="Rectángulo 5439" width="40.467" height="4.197" transform="translate(266.607 2053.967) rotate(180)" fill="#3e3d51"/>
          <rect id="Rectángulo_5440" data-name="Rectángulo 5440" width="40.384" height="4.654" transform="translate(265.845 2051.332) rotate(180)" fill="#fbf3ff"/>
        </g>
        <rect id="Rectángulo_5441" data-name="Rectángulo 5441" width="25.392" height="18.117" transform="translate(337.936 2067.024)" fill="#c4b8ad"/>
        <rect id="Rectángulo_5442" data-name="Rectángulo 5442" width="111.56" height="1.434" transform="translate(224.947 2069.848)" fill="#d3c7ba"/>
        <rect id="Rectángulo_5443" data-name="Rectángulo 5443" width="50.236" height="10.585" transform="translate(228.407 2072.5)" fill="#d3c7ba"/>
        <rect id="Rectángulo_5444" data-name="Rectángulo 5444" width="50.236" height="10.585" transform="translate(283.187 2072.5)" fill="#d3c7ba"/>
      </g>
      <g id="Grupo_54506" data-name="Grupo 54506">
        <path id="Trazado_102356" data-name="Trazado 102356" d="M362.184,2009.435l-4.527,41.653s2.213,8.809,1.946,11.311-4.921,35.33-4.921,35.33l.2,1.842.005,5.437H337.607a77.3,77.3,0,0,0,8.8-5.032,3.653,3.653,0,0,0,1.465-2.607c1.37-10.118-1.34-43.867-1.34-43.867l-2.134-43.932Z" fill="#f7a491"/>
        <path id="Trazado_102357" data-name="Trazado 102357" d="M376.067,2018.2c.976.254,2.478,36.068,3.286,37.656,5.122,10.063,6.34,40.658,6.34,40.658l1.488,4.357,1.6,5.343s-5.116,1.4-7.8-.124l.3-5.268.273-4.816-12.924-38.117-7.072-38.88Z" fill="#f7a491"/>
        <path id="Trazado_102358" data-name="Trazado 102358" d="M381.276,2100.8a8.277,8.277,0,0,0,5.906.069l1.638,5.362s-5.151,1.526-7.833,0Z" fill="#333343"/>
        <path id="Trazado_102359" data-name="Trazado 102359" d="M355.062,2106.358H337.1c-.664-.061-.826-.62-.6-.964.474-.71,2.569-1.23,4.924-2.36,4.13.448,12.8-2.488,13.45-3.474C355.258,2101.536,355.431,2106.274,355.062,2106.358Z" fill="#333343"/>
        <path id="Trazado_102360" data-name="Trazado 102360" d="M341,2034.825l1.666-22.5c.921-12.36,2.96-13.51,5.415-19.676l2.907-6.089c1.7.612,19.212,1.074,19.237,1.194.722,3.542,3.376,7.341,5.086,18.132,1.941,12.249,2.75,30.555,2.525,31.989C359.995,2038.633,351.487,2037.777,341,2034.825Z" fill="#3e3d51"/>
        <g id="Grupo_54504" data-name="Grupo 54504">
          <path id="Trazado_102361" data-name="Trazado 102361" d="M352.45,1927.379a8.757,8.757,0,0,1,7.151-4.114c5.344-.01,8.52,2.445,10.277,5.218l.17.27c4.052,6.424,6.274,10.97,13.4,13.785,16.73,6.6,12.927,24.355,2.524,30.834-16.506,10.28-26.981.14-32.672-12.061C344.488,1942.409,351.376,1929.043,352.45,1927.379Z" fill="#333343"/>
        </g>
        <path id="Trazado_102362" data-name="Trazado 102362" d="M370.578,1952.183a130.364,130.364,0,0,0-22.945.79c-.864.134,4.194,29.045,2.811,34.127l-2.817,5.555s16.961,3.509,25.486-.929l-4.765-7C369.2,1980.976,374.355,1952.524,370.578,1952.183Z" fill="#0ac4bf"/>
        <path id="Trazado_102363" data-name="Trazado 102363" d="M355.88,1943.81s-.736,17.254,3.519,17.608,4.356-10.16,4.41-11.451l.3-7.029Z" fill="#f7a491"/>
        <path id="Trazado_102364" data-name="Trazado 102364" d="M355.835,1947.479c2.716,3.061,6.655,2.586,8.054.587l.216-5.128-8.225.872S355.815,1945.331,355.835,1947.479Z" fill="#f47458" opacity="0.5" style="mix-blend-mode: multiply;isolation: isolate"/>
        <path id="Trazado_102365" data-name="Trazado 102365" d="M372.285,1988.845c2.1-.655,9.562-33.939-1.164-36.362,0,0,.222,2.858.148,5.909-.18,7.418-2.7,23.731-2.7,23.731s-9.675-2.323-17.3-1.5l-6.4,3.588-.976,4.007s2.316,2.231,2.8,2.231-.8-1.965-.8-1.965,1.192,1.149,1.486.866-.537-1.831-.537-1.831l4.616-2.364S370.183,1989.5,372.285,1988.845Z" fill="#f7a491"/>
        <path id="Trazado_102366" data-name="Trazado 102366" d="M370.578,1952.183s.406,1.018.406,6.209a148.434,148.434,0,0,1-1.279,14.983,47.614,47.614,0,0,1,8.043.31C379.515,1963.1,377.733,1952.412,370.578,1952.183Z" fill="#fbf3ff"/>
        <path id="Trazado_102367" data-name="Trazado 102367" d="M342.235,1960.321c-.091,7.194.83,18.143,5.6,24.347,1.246,1.621,3.63-3.025,3.63-3.025s-1.845-28.97-3.839-28.669C345.8,1953.25,342.31,1954.4,342.235,1960.321Z" fill="#f48c7f"/>
        <path id="Trazado_102368" data-name="Trazado 102368" d="M350.988,1975.1c-.675-8.526-1.983-22.334-3.363-22.126-1.828.276-5.989,1.425-6.064,7.347a61.206,61.206,0,0,0,1.97,16.977,14.914,14.914,0,0,1,5.444-1.947A16.635,16.635,0,0,0,350.988,1975.1Z" fill="#fbf3ff"/>
        <g id="Grupo_54505" data-name="Grupo 54505">
          <path id="Trazado_102369" data-name="Trazado 102369" d="M356.212,1945.535a10.651,10.651,0,0,0-.381,1.482c-.155.849.191,1.681-.483,2.513s1.794,5.811,1.794,5.811a9.686,9.686,0,0,0,.3-3.413c-.225-1.582.06-5.486.4-5.81S356.212,1945.535,356.212,1945.535Z" fill="#f48c7f"/>
          <path id="Trazado_102370" data-name="Trazado 102370" d="M353.844,1941.967l-1.819,1.9-1.292,1.715a22.88,22.88,0,0,1,.138,3.662,2.539,2.539,0,0,0,.121,1.648,38.205,38.205,0,0,1,1.642,5.594s-2.48,7.4-3.05,8.7-3.042,10.311-3.552,12.71c-.34,1.6,1.1,6.965,2.7,7.63,1.558.648,3.4.866,4.921-7.63.384-2.149,2.955-18.928,2.955-19.627s.723-1.465.778-2.924c.065-1.719-1.711-3.668-1.711-3.668l1.167-1.823,1.037-.125s1.127,1.086,1.451.774-.6-1.323-.6-1.323.363.416.665.124-1.391-2.147-1.391-2.147L355.443,1946l-.519.075-2.216,2-.117-2.347.933-1.673S355.253,1942.3,353.844,1941.967Z" fill="#f79c8d"/>
          <path id="Trazado_102371" data-name="Trazado 102371" d="M358.528,1949.076c-.082-.034-.163-.07-.242-.106s-.159-.075-.239-.112-.156-.078-.235-.117-.156-.078-.233-.119l.05.013c-.159.009-.317.016-.475.021s-.317.008-.476.01l.08-.027q-.5.4-1.022.768c-.176.122-.351.244-.531.362s-.36.232-.548.339c.148-.155.3-.3.462-.443s.319-.283.48-.421q.489-.411,1-.8l.037-.027h.043c.159,0,.317.005.476.01s.316.012.475.021h.032l.018.012q.11.072.216.147c.071.05.144.1.214.15s.142.1.211.155S358.46,1949.021,358.528,1949.076Z" fill="#f47458"/>
          <path id="Trazado_102372" data-name="Trazado 102372" d="M358.528,1948.793c-.08-.088-.155-.177-.231-.267l-.223-.272-.217-.275-.212-.279.056.041c-.145-.036-.288-.078-.432-.116s-.287-.08-.43-.121q-.429-.126-.855-.261l.109-.017-.431.276-.437.269c-.148.087-.294.176-.444.259s-.3.168-.453.247c.129-.113.26-.222.393-.328s.269-.211.4-.316l.41-.305.416-.3L356,1947l.062.017q.431.123.856.255c.142.045.284.09.425.137s.284.092.424.142l.04.014.017.027.185.3.18.3.175.3C358.417,1948.587,358.474,1948.689,358.528,1948.793Z" fill="#f47458"/>
        </g>
        <path id="Trazado_102373" data-name="Trazado 102373" d="M354.321,1929.053s-1.121,2.429-1.121,7.488,1.261,7.961,3.712,9.648a6.053,6.053,0,0,0,6.654,0c2.484-1.689,4.9-7.961,4.2-12.414S364.967,1920.553,354.321,1929.053Z" fill="#f7a491"/>
        <path id="Trazado_102374" data-name="Trazado 102374" d="M358.033,1923.96a8.85,8.85,0,0,0-5.007,4.385c-1.541,3.17,0,7.488,0,7.488s1.171-2.834,2.161-3.07,4.772.945,6.278-.506a29.263,29.263,0,0,0,3.362-4.452s-.368,3.828-1.506,4.925,3.431,1.72,4.534.371,1.629,4.216,1.629,4.216.56-7.151-2.977-10.828A9.526,9.526,0,0,0,358.033,1923.96Z" fill="#333343"/>
      </g>
      <path id="Trazado_102375" data-name="Trazado 102375" d="M192.8,1907.553l.688,76.577,6.752-.57,2.16-38.526a4.387,4.387,0,0,1,3.989-4.123h0a4.387,4.387,0,0,1,4.776,4.22l1.3,38.429h4.789s1.261-67.505.061-72.012-7.04-3.995-7.04-3.995Z" fill="#3bd0cc"/>
      <g id="Grupo_54509" data-name="Grupo 54509">
        <g id="Grupo_54507" data-name="Grupo 54507">
          <path id="Trazado_102376" data-name="Trazado 102376" d="M173.956,2009.961h-2.489a10.629,10.629,0,0,1-10.629-10.628v-10.775H182.96l1.625,10.775A10.629,10.629,0,0,1,173.956,2009.961Z" fill="#6cdcd9"/>
          <path id="Trazado_102377" data-name="Trazado 102377" d="M169.612,2009.814h0a10.628,10.628,0,0,1-10.629-10.628l1.32-10.628H180.24v10.628A10.628,10.628,0,0,1,169.612,2009.814Z" fill="#0ac4bf"/>
          <path id="Trazado_102378" data-name="Trazado 102378" d="M170.528,2004.176c0,.477-.678.863-1.515.863s-1.514-.386-1.514-.863.678-.862,1.514-.862S170.528,2003.7,170.528,2004.176Z" fill="#056260"/>
        </g>
        <g id="Grupo_54508" data-name="Grupo 54508">
          <path id="Trazado_102379" data-name="Trazado 102379" d="M181.872,1997.41a.912.912,0,0,1-.925-.9c-.3-19.275-1.072-52.774-2.377-71.962-.214-3.144-.794-11.369-1.639-14.229-.334-1.132-2.294-1.733-2.864,1.226,0,.014-1.848,0-1.848,0,1.049-5.257,5.619-4.6,6.463-1.743.9,3.058,1.478,11.216,1.709,14.622.185,2.723.36,5.709.534,9.128.929,18.279,1.564,44.56,1.847,62.929a.911.911,0,0,1-.9.926Z" fill="#3bd0cc"/>
        </g>
      </g>
    </g>
  </g>
</svg>
