<svg xmlns="http://www.w3.org/2000/svg" width="80" height="82.415" viewBox="0 0 80 82.415">
  <g id="Grupo_54523" data-name="Grupo 54523" transform="translate(0 0)">
    <g id="Grupo_54522" data-name="Grupo 54522" transform="translate(0 0)">
      <path id="Trazado_102394" data-name="Trazado 102394" d="M258.7,1071.232h-4.829l-9.657-35.172,9.657-35.171H258.7Z" transform="translate(-179.905 -990.024)" fill="#7ee8e3"/>
      <path id="Trazado_102395" data-name="Trazado 102395" d="M240.425,1085.461H189.4V1058.9l51.026,21.73Z" transform="translate(-166.461 -1004.253)" fill="#6cdcd9"/>
      <path id="Trazado_102396" data-name="Trazado 102396" d="M252.3,1064.833h-4.829l-9.658-35.171,9.658-35.171H252.3Z" transform="translate(-178.336 -988.455)" fill="#6cdcd9"/>
      <path id="Trazado_102397" data-name="Trazado 102397" d="M183,1058.9h51.027v21.73H183Z" transform="translate(-164.891 -1004.253)" fill="#3bd0cc"/>
      <path id="Trazado_102398" data-name="Trazado 102398" d="M209.217,1031.175,175.093,1052.1H160.606a7.244,7.244,0,0,0,7.244,7.243h48.611Z" transform="translate(-159.398 -997.453)" fill="#0ac4bf"/>
      <path id="Trazado_102399" data-name="Trazado 102399" d="M225.016,1031.175V1052.1a7.244,7.244,0,0,0,7.244,7.243h4.829v-28.169Z" transform="translate(-175.197 -997.453)" fill="#3bd0cc"/>
      <path id="Trazado_102400" data-name="Trazado 102400" d="M242.642,988.093l-4.829,60.27a7.245,7.245,0,0,0,9.658-6.829V988.093Z" transform="translate(-178.336 -986.885)" fill="#3bd0cc"/>
      <path id="Trazado_102401" data-name="Trazado 102401" d="M179.8,988.093v53.441h38.954a7.245,7.245,0,0,0,4.829,6.829,7.245,7.245,0,0,0,4.829-6.829V988.093Z" transform="translate(-164.107 -986.885)" fill="#0ac4bf"/>
      <circle id="Elipse_4193" data-name="Elipse 4193" cx="2.414" cy="2.414" r="2.414" transform="translate(40 40.161)" fill="#fff"/>
      <path id="Trazado_102402" data-name="Trazado 102402" d="M214.421,1000.89a2.415,2.415,0,0,0-2.415,2.414v19.638a2.415,2.415,0,0,0,4.829,0V1003.3A2.415,2.415,0,0,0,214.421,1000.89Z" transform="translate(-172.006 -990.024)" fill="#fff"/>
      <path id="Trazado_102403" data-name="Trazado 102403" d="M237.8,996.151h-3.622v-3.622a1.207,1.207,0,0,0-1.208-1.207h-3.621V987.7a1.207,1.207,0,0,0-1.208-1.208H174.7a1.207,1.207,0,0,0-1.207,1.208v52.233h-13.28a1.207,1.207,0,0,0-1.208,1.208,8.461,8.461,0,0,0,8.451,8.451H220.9a8.461,8.461,0,0,0,8.451-8.451v-47.4h2.414v67.928H178.322v-8.451a1.207,1.207,0,1,0-2.414,0v9.657a1.207,1.207,0,0,0,1.207,1.208h3.622v3.622a1.207,1.207,0,0,0,1.208,1.207H237.8a1.207,1.207,0,0,0,1.207-1.207V997.359A1.207,1.207,0,0,0,237.8,996.151Zm-70.342,51.027a6.047,6.047,0,0,1-5.915-4.829h50.991a8.435,8.435,0,0,0,2.457,4.829Zm59.476-6.036a6.036,6.036,0,1,1-12.072,0,1.207,1.207,0,0,0-1.207-1.208H175.908V988.907h51.026Zm9.658,25.352H183.151v-2.414H232.97a1.207,1.207,0,0,0,1.208-1.208V998.566h2.414Z" transform="translate(-159.006 -986.493)" fill="#056260"/>
      <path id="Trazado_102404" data-name="Trazado 102404" d="M214.029,999.29a3.626,3.626,0,0,0-3.622,3.622v19.638a3.622,3.622,0,1,0,7.243,0v-19.638A3.626,3.626,0,0,0,214.029,999.29Zm1.207,23.26a1.207,1.207,0,1,1-2.414,0v-19.638a1.207,1.207,0,1,1,2.414,0Z" transform="translate(-171.614 -989.632)" fill="#056260"/>
      <path id="Trazado_102405" data-name="Trazado 102405" d="M214.029,1038.107a3.622,3.622,0,1,0,3.621,3.622A3.626,3.626,0,0,0,214.029,1038.107Zm0,4.829a1.207,1.207,0,1,1,1.207-1.207A1.208,1.208,0,0,1,214.029,1042.936Z" transform="translate(-171.614 -999.153)" fill="#056260"/>
    </g>
  </g>
</svg>
